<svg width="359" height="68" viewBox="0 0 359 68" fill="none" xmlns="http://www.w3.org/2000/svg">
<path d="M36.48 67.584H0V0.384001H7.968V64.584H36.48V67.584Z" fill="#FFF"/>
<path d="M46.125 3.57617V0.384001H63.213V3.57617H58.509V64.584H63.213V67.584H46.125V64.584H50.541V3.57617H46.125Z" fill="#FFF"/>
<path d="M97.4235 67.584H89.4555V3.57617H72.8475V0.384001H114.128V3.57617H97.4235V67.584Z" fill="#FFF"/>
<path d="M131.43 0.48C134.246 0.352001 136.998 0.288002 139.686 0.288002C142.438 0.288002 145.318 0.576002 148.326 1.152C151.398 1.728 154.406 2.816 157.35 4.416C160.358 5.952 162.886 7.968 164.934 10.464C167.046 12.896 168.742 16.128 170.022 20.16C171.302 24.192 171.942 29.088 171.942 34.848C171.942 40.608 170.982 45.792 169.062 50.4C167.206 54.944 164.646 58.432 161.382 60.864C155.046 65.6 147.398 67.968 138.438 67.968C135.302 67.968 132.006 67.84 128.55 67.584H123.75V0.48H131.43ZM131.718 66.816C133.062 66.944 134.758 67.008 136.806 67.008C138.854 67.008 140.39 66.976 141.414 66.912C142.438 66.848 143.846 66.592 145.638 66.144C147.43 65.632 149.094 64.96 150.63 64.128C152.166 63.296 153.766 62.08 155.43 60.48C157.158 58.816 158.63 56.864 159.846 54.624C162.598 49.376 163.974 42.528 163.974 34.08C163.974 28.064 163.238 22.88 161.766 18.528C160.294 14.112 158.598 10.848 156.678 8.736C154.822 6.624 152.55 4.96 149.862 3.744C147.174 2.464 145.03 1.728 143.43 1.536C141.83 1.344 139.974 1.248 137.862 1.248C135.75 1.248 133.702 1.344 131.718 1.536V66.816Z" fill="#FFF"/>
<path d="M180.611 35.616C180.611 23.968 183.427 15.136 189.059 9.12C194.755 3.04 202.051 0 210.947 0C219.843 0 226.915 2.624 232.163 7.872C237.475 13.12 240.131 21.504 240.131 33.024C240.131 44.544 237.315 53.248 231.683 59.136C226.051 65.024 218.531 67.968 209.123 67.968C200.995 67.968 194.339 65.632 189.155 60.96C186.467 58.528 184.355 55.168 182.819 50.88C181.347 46.528 180.611 41.44 180.611 35.616ZM210.659 0.960005C204.195 0.960005 198.883 3.84 194.723 9.6C190.627 15.36 188.579 23.808 188.579 34.944C188.579 46.08 190.531 54.208 194.435 59.328C198.339 64.448 203.523 67.008 209.987 67.008C216.515 67.008 221.827 64.128 225.923 58.368C230.083 52.544 232.163 44.128 232.163 33.12C232.163 22.048 230.179 13.92 226.211 8.736C222.307 3.552 217.123 0.960005 210.659 0.960005Z" fill="#FFF"/>
<path d="M282.272 67.968C270.304 67.968 261.44 64.576 255.68 57.792C253.632 55.36 251.968 52.128 250.688 48.096C249.408 44.064 248.768 39.168 248.768 33.408C248.768 27.648 249.695 22.496 251.551 17.952C253.471 13.344 256.064 9.792 259.328 7.296C265.664 2.624 273.312 0.288002 282.272 0.288002C284.832 0.288002 287.327 0.512003 289.759 0.960005C292.191 1.344 294.016 1.76 295.232 2.208L296.96 2.88L296.672 3.84C292.32 2.112 287.52 1.248 282.272 1.248C275.488 1.248 269.824 3.456 265.28 7.872C261.824 11.136 259.391 15.936 257.983 22.272C257.151 25.856 256.736 30.24 256.736 35.424C256.736 40.608 257.472 45.408 258.944 49.824C260.416 54.176 262.079 57.408 263.935 59.52C265.855 61.632 268.16 63.328 270.848 64.608C273.536 65.824 275.68 66.528 277.28 66.72C278.88 66.912 280.799 67.008 283.039 67.008C285.343 67.008 287.935 66.784 290.815 66.336C293.695 65.888 295.872 65.472 297.344 65.088L299.552 64.416L299.84 65.376C294.976 67.104 289.12 67.968 282.272 67.968Z" fill="#FFF"/>
<path d="M317.905 0.384001V38.5768L347.279 0.383753L350.279 0.576172L332.497 24.48L358.034 67.584H349.105L327.602 31.2L317.905 44.544V67.584H309.938V0.384001H317.905Z" fill="#FFF"/>
</svg>
